<?xml version="1.0" encoding="utf-8"?>
<!-- Generator: Adobe Illustrator 26.0.0, SVG Export Plug-In . SVG Version: 6.00 Build 0)  -->
<svg version="1.1" id="Layer_1" xmlns="http://www.w3.org/2000/svg" xmlns:xlink="http://www.w3.org/1999/xlink" x="0px" y="0px"
	 viewBox="0 0 200 200" style="enable-background:new 0 0 200 200;" xml:space="preserve">
<style type="text/css">
	.st0{fill:#FFFFFF;stroke:#231F20;stroke-width:6;stroke-miterlimit:10;}
	.st1{fill:#FFF2A5;}
	.st2{fill:#231F20;}
	.st3{display:none;fill:#FFFFFF;stroke:#231F20;stroke-width:6;stroke-miterlimit:10;}
</style>
<path class="st0" d="M65.77,67.63"/>
<path class="st0" d="M65.77,132.13"/>
<g>
	<circle class="st1" cx="98.02" cy="99.88" r="38.7"/>
	<path class="st2" d="M136.72,99.88c0.31,21.13-17.15,40.22-38.7,41.45c-16.91,1.39-33.99-8.87-40.65-24.61
		c-4.65-10.57-4.65-23.11,0-33.68c6.66-15.74,23.74-26,40.65-24.61C119.57,59.66,137.03,78.75,136.72,99.88L136.72,99.88z
		 M136.72,99.88c-0.05-20.95-17.8-37.67-38.7-35.95c-18.6,1.29-33.44,17.76-33.2,35.95c-0.24,18.18,14.6,34.66,33.2,35.95
		C118.93,137.54,136.67,120.83,136.72,99.88L136.72,99.88z"/>
</g>
<path class="st3" d="M57.21,59.07"/>
</svg>
